<svg version="1.1" viewBox="0.0 0.0 128.59317585301838 100.0" fill="none" stroke="none" stroke-linecap="square" stroke-miterlimit="10" xmlns:xlink="http://www.w3.org/1999/xlink" xmlns="http://www.w3.org/2000/svg"><clipPath id="p.0"><path d="m0 0l128.59317 0l0 100.0l-128.59317 0l0 -100.0z" clip-rule="nonzero"/></clipPath><g clip-path="url(#p.0)"><path fill="#000000" fill-opacity="0.0" d="m0 0l128.59317 0l0 100.0l-128.59317 0z" fill-rule="evenodd"/><path fill="#000000" fill-opacity="0.0" d="m-54.706036 15.627296l234.92914 0l0 67.874016l-234.92914 0z" fill-rule="evenodd"/><path fill="#b22222" d="m2.9110897 63.027294l0 -28.0l5.375 0l11.906249 19.765625l-2.828125 0l11.71875 -19.765625l5.312502 0l0.078125 28.0l-6.078127 0l-0.03125 -18.6875l1.109375 0l-9.359375 15.734375l-2.921875 0l-9.546874 -15.734375l1.359375 0l0 18.6875l-6.09375 0zm34.52809 0l12.484375 -28.0l6.390625 0l12.531246 28.0l-6.812496 0l-10.234375 -24.71875l2.5625 0l-10.28125 24.71875l-6.640625 0zm6.234375 -6.0l1.71875 -4.921875l14.40625 0l1.765625 4.921875l-17.890625 0zm26.28059 6.0l0 -4.203125l17.328125 -20.875l0.796875 2.359375l-17.796875 0l0 -5.28125l23.5625 0l0 4.203125l-17.28125 20.875l-0.8125 -2.359375l18.6875 0l0 5.28125l-24.484375 0zm24.964981 0l12.484375 -28.0l6.390625 0l12.53125 28.0l-6.8125 0l-10.234375 -24.71875l2.5625 0l-10.28125 24.71875l-6.640625 0zm6.234375 -6.0l1.71875 -4.921875l14.40625 0l1.765625 4.921875l-17.890625 0z" fill-rule="nonzero"/><path fill="#000000" fill-opacity="0.0" d="m-53.608925 54.09449l234.92914 0l0 48.472443l-234.92914 0z" fill-rule="evenodd"/><path fill="#ef9347" d="m2.8042002 86.13449l0 -16.796875l8.21875 0q3.171875 0 4.765625 1.203125q1.593751 1.1875 1.593751 3.15625q0 1.328125 -0.65625 2.296875q-0.640625 0.96875 -1.765626 1.5q-1.125 0.53125 -2.59375 0.53125l0.453125 -0.984375q1.578125 0 2.796875 0.515625q1.234376 0.515625 1.921876 1.53125q0.6875 1.0 0.6875 2.46875q0 2.15625 -1.71875 3.375q-1.703126 1.203125 -5.000001 1.203125l-8.703125 0zm3.875 -2.921875l4.53125 0q1.515625 0 2.296875 -0.484375q0.78125 -0.5 0.78125 -1.578125q0 -1.0625 -0.78125 -1.578125q-0.78125 -0.515625 -2.296875 -0.515625l-4.828125 0l0 -2.828125l4.15625 0q1.421875 0 2.171875 -0.484375q0.75 -0.5 0.75 -1.515625q0 -0.984375 -0.75 -1.46875q-0.75 -0.5 -2.171875 -0.5l-3.859375 0l0 10.953125zm21.95369 3.203125q-3.578125 0 -5.59375 -1.984375q-2.015625 -2.0 -2.015625 -5.6875l0 -9.40625l3.890625 0l0 9.265625q0 2.390625 0.984375 3.453125q0.984375 1.046875 2.765625 1.046875q1.765625 0 2.75 -1.046875q0.9843731 -1.0625 0.9843731 -3.453125l0 -9.265625l3.84375 0l0 9.40625q0 3.6875 -2.015625 5.6875q-2.015625 1.984375 -5.593748 1.984375zm11.44319 -0.28125l0 -16.796875l7.28125 0q2.25 0 3.875 0.734375q1.640625 0.71875 2.53125 2.09375q0.890625 1.375 0.890625 3.265625q0 1.875 -0.890625 3.234375q-0.890625 1.34375 -2.53125 2.0625q-1.625 0.71875 -3.875 0.71875l-5.109375 0l1.71875 -1.703125l0 6.390625l-3.890625 0zm10.6875 0l-4.203125 -6.09375l4.15625 0l4.25 6.09375l-4.203125 0zm-6.796875 -5.953125l-1.71875 -1.828125l4.890625 0q1.796875 0 2.6875 -0.78125q0.890625 -0.78125 0.890625 -2.140625q0 -1.390625 -0.890625 -2.15625q-0.890625 -0.765625 -2.6875 -0.765625l-4.890625 0l1.71875 -1.859375l0 9.53125zm21.874329 6.234375q-2.0 0 -3.671875 -0.625q-1.65625 -0.640625 -2.90625 -1.8125q-1.234375 -1.1875 -1.921875 -2.765625q-0.671875 -1.578125 -0.671875 -3.484375q0 -1.890625 0.671875 -3.46875q0.6875 -1.59375 1.9375 -2.765625q1.25 -1.171875 2.921875 -1.8125q1.6875 -0.640625 3.703125 -0.640625q2.234375 0 4.015625 0.75q1.796875 0.75 3.015625 2.15625l-2.484375 2.3125q-0.921875 -0.96875 -2.0 -1.4375q-1.078125 -0.46875 -2.34375 -0.46875q-1.234375 0 -2.25 0.390625q-1.0 0.375 -1.734375 1.109375q-0.734375 0.71875 -1.125 1.703125q-0.390625 0.984375 -0.390625 2.171875q0 1.1875 0.390625 2.171875q0.390625 0.984375 1.125 1.71875q0.734375 0.71875 1.734375 1.109375q1.0 0.375 2.1875 0.375q1.15625 0 2.25 -0.359375q1.09375 -0.375 2.125 -1.265625l2.203125 2.8125q-1.359375 1.03125 -3.171875 1.578125q-1.8125 0.546875 -3.609375 0.546875zm3.234375 -2.640625l0 -6.296875l3.546875 0l0 6.8125l-3.546875 -0.515625zm14.613335 2.640625q-3.578125 0 -5.59375 -1.984375q-2.015625 -2.0 -2.015625 -5.6875l0 -9.40625l3.890625 0l0 9.265625q0 2.390625 0.984375 3.453125q0.984375 1.046875 2.765625 1.046875q1.765625 0 2.75 -1.046875q0.984375 -1.0625 0.984375 -3.453125l0 -9.265625l3.84375 0l0 9.40625q0 3.6875 -2.015625 5.6875q-2.015625 1.984375 -5.59375 1.984375zm15.021301 -10.3125l8.09375 0l0 3.015625l-8.09375 0l0 -3.015625zm0.296875 6.90625l9.140625 0l0 3.125l-13.015625 0l0 -16.796875l12.703125 0l0 3.109375l-8.828125 0l0 10.5625zm12.228973 3.125l0 -16.796875l7.28125 0q2.25 0 3.875 0.734375q1.640625 0.71875 2.53125 2.09375q0.890625 1.375 0.890625 3.265625q0 1.875 -0.890625 3.234375q-0.890625 1.34375 -2.53125 2.0625q-1.625 0.71875 -3.875 0.71875l-5.109375 0l1.71875 -1.703125l0 6.390625l-3.890625 0zm10.6875 0l-4.203125 -6.09375l4.15625 0l4.25 6.09375l-4.203125 0zm-6.796875 -5.953125l-1.71875 -1.828125l4.890625 0q1.796875 0 2.6875 -0.78125q0.890625 -0.78125 0.890625 -2.140625q0 -1.390625 -0.890625 -2.15625q-0.890625 -0.765625 -2.6875 -0.765625l-4.890625 0l1.71875 -1.859375l0 9.53125z" fill-rule="nonzero"/><path fill="#ef9347" d="m2.574803 31.396326l0 0c0 -10.802168 27.744246 -19.559055 61.968502 -19.559055c34.224266 0 61.968506 8.756887 61.968506 19.559055l0 0c-14.628777 -6.156357 -37.587204 -9.779528 -61.968506 -9.779528c-24.381298 0 -47.33972 3.6231709 -61.968502 9.779528z" fill-rule="evenodd"/><path stroke="#ef9347" stroke-width="1.0" stroke-linejoin="round" stroke-linecap="butt" d="m2.574803 31.396326l0 0c0 -10.802168 27.744246 -19.559055 61.968502 -19.559055c34.224266 0 61.968506 8.756887 61.968506 19.559055l0 0c-14.628777 -6.156357 -37.587204 -9.779528 -61.968506 -9.779528c-24.381298 0 -47.33972 3.6231709 -61.968502 9.779528z" fill-rule="evenodd"/></g></svg>